<?xml version="1.0" encoding="iso-8859-1"?>
<!-- Generator: Adobe Illustrator 19.0.0, SVG Export Plug-In . SVG Version: 6.00 Build 0)  -->
<svg version="1.1" id="Capa_1" xmlns="http://www.w3.org/2000/svg" xmlns:xlink="http://www.w3.org/1999/xlink" x="0px" y="0px"
	 viewBox="0 0 458.496 458.496" style="enable-background:new 0 0 458.496 458.496;" xml:space="preserve">
<g>
	<g>
		<polygon points="96.711,368 85.385,379.311 111.335,405.248 29.96,405.248 29.96,421.248 111.335,421.248 85.385,447.183 
			96.711,458.496 141.96,413.248 		"/>
	</g>
</g>
<g>
	<g>
		<path d="M252.693,47.574c-6.453-6.578-13.342-10.326-20.541-10.326h-80v16h54.561c-20.31,26.51-35.158,83.594-38.008,152h15.981
			c4.054-98.522,32.364-152,47.466-152s43.412,53.478,47.466,152h15.981c-1.77-42.468-8.177-80.558-17.621-109.742L403.72,221.248
			H168.152v16h0.134c1.037,75.317,16.472,139.416,38.322,168h-54.457v16h80c7.592,0,14.842-4.173,21.6-11.451l0.063,0.138
			l180.529-180.687L252.693,47.574z M232.152,405.248c-15.898,0-46.397-59.309-47.862-168h95.722
			C278.549,345.939,248.05,405.248,232.152,405.248z M277.976,363.133c10.65-32.8,17.368-76.977,18.041-125.885H403.72
			L277.976,363.133z"/>
	</g>
</g>
<g>
	<g>
		<polygon points="90.904,184 79.576,195.311 105.528,221.248 24.152,221.248 24.152,237.248 105.528,237.248 79.576,263.183 
			90.904,274.496 136.152,229.248 		"/>
	</g>
</g>
<g>
	<g>
		<polygon points="90.904,0 79.576,11.311 105.528,37.248 24.152,37.248 24.152,53.248 105.528,53.248 79.576,79.183 90.904,90.496 
			136.152,45.248 		"/>
	</g>
</g>
<g>
</g>
<g>
</g>
<g>
</g>
<g>
</g>
<g>
</g>
<g>
</g>
<g>
</g>
<g>
</g>
<g>
</g>
<g>
</g>
<g>
</g>
<g>
</g>
<g>
</g>
<g>
</g>
<g>
</g>
</svg>
