<svg width="370" height="174" xmlns="http://www.w3.org/2000/svg">
 <g>
  <title>Layer 1</title>
  <g stroke="null">
   <path stroke="null" d="m228.01953,154.35525l104.73378,-110.28396l16.75329,15.82827l14.33794,-59.71573l-58.99626,17.42137l16.75329,15.87966l-98.05302,103.24346l-27.90503,-29.40049l60.02407,-63.21028l16.75329,15.77688l14.33794,-59.71059l-58.99626,17.42137l16.75329,15.87966l-59.51017,62.5936l-82.0192,-86.23321l-10.63783,11.15173l82.0192,86.336l-27.90503,29.39535l-82.0192,-86.336l-10.63783,11.25451l88.13466,92.70841l-141.94049,0l0,20.55619l370.01141,0l0,-20.55619l-141.99188,0zm-77.03432,0l34.02049,-35.81916l34.07188,35.81916l-68.09238,0z"/>
  </g>
 </g>

</svg>