<svg height="512" viewBox="0 0 58 47" width="512" xmlns="http://www.w3.org/2000/svg"><g id="Page-1" fill="none" fill-rule="evenodd"><g id="030---Reflective-Fabric" fill="rgb(0,0,0)" fill-rule="nonzero"><path id="Shape" d="m38.922 16.815-2.9 2.755c-.5180351.492312-.734074 1.2235955-.5667368 1.918383.1673371.6947876.6926277 1.2475244 1.378 1.45.6853722.2024756 1.4267017.023929 1.9447368-.468383l2.9-2.755c.5180351-.492312.734074-1.2235955.5667368-1.918383-.1673371-.6947876-.6926277-1.2475244-1.378-1.45-.6853722-.2024756-1.4267017-.023929-1.9447368.468383z"/><path id="Shape" d="m30.222 25.08-1.213 1.152-25.621-24.672c-.79529004-.76657123-2.06142877-.74329004-2.828.052s-.74329004 2.06142877.052 2.828l27 26c.770707.7431322 1.9899399.7475401 2.766.01l2.6-2.471c.5180351-.492312.734074-1.2235955.5667369-1.918383-.1673371-.6947876-.6926278-1.2475245-1.378-1.4500001-.6853723-.2024755-1.4267018-.0239289-1.9447369.4683831z"/><path id="Shape" d="m50.45 8.623c-.7605793-.80062572-2.0261136-.83330488-2.827-.073l-2.9 2.755c-.5336564.4883212-.7620444 1.2267443-.597268 1.9310848.1647763.7043405.6970339 1.264815 1.3919315 1.4657231s1.4441239.0109349 1.9593365-.4968079l2.9-2.755c.8006257-.7605793.8333049-2.02611364.073-2.827z"/><path id="Shape" d="m56 11c-1.1045695 0-2-.8954305-2-2v-4.694l-4.717.674c-1.0935238.15629658-2.1067034-.6034762-2.263-1.697s.6034762-2.10670342 1.697-2.263l7-1c.5739979-.08204623 1.1553504.08905394 1.5933901.468957.4380398.37990307.6896457.93121099.6896099 1.511043v7c0 1.1045695-.8954305 2-2 2z"/><rect id="Rectangle-path" height="4" rx="2" width="58" y="43"/><rect id="Rectangle-path" height="4" rx="2" width="58" y="33"/><path id="Shape" d="m6.53 38-2.67 4h-1.86c-.19159457-.0003562-.38267892.019758-.57.06l2.71-4.06z"/><path id="Shape" d="m11.53 38-2.67 4h-2.39l2.67-4z"/><path id="Shape" d="m16.53 38-2.67 4h-2.39l2.67-4z"/><path id="Shape" d="m21.53 38-2.67 4h-2.39l2.67-4z"/><path id="Shape" d="m26.53 38-2.67 4h-2.39l2.67-4z"/><path id="Shape" d="m31.53 38-2.67 4h-2.39l2.67-4z"/><path id="Shape" d="m36.53 38-2.67 4h-2.39l2.67-4z"/><path id="Shape" d="m41.53 38-2.67 4h-2.39l2.67-4z"/><path id="Shape" d="m46.53 38-2.67 4h-2.39l2.67-4z"/><path id="Shape" d="m51.53 38-2.67 4h-2.39l2.67-4z"/><path id="Shape" d="m56.57 37.94-2.71 4.06h-2.39l2.67-4h1.86c.1915946.0003562.3826789-.019758.57-.06z"/></g></g></svg>